<?xml version="1.0" encoding="utf-8"?>
<!-- Generator: Adobe Illustrator 19.0.0, SVG Export Plug-In . SVG Version: 6.00 Build 0)  -->
<svg version="1.1" id="Layer_1" xmlns="http://www.w3.org/2000/svg" xmlns:xlink="http://www.w3.org/1999/xlink" x="0px" y="0px"
	 viewBox="0 0 204.3 190.5" style="enable-background:new 0 0 204.3 190.5;" xml:space="preserve">
<style type="text/css">
	.st0{fill:#0E3A49;}
	.st1{fill:#FFFEFE;}
	.st2{fill:#FFFFFF;}
	.st3{font-family:'ProductSans-Bold';}
	.st4{font-size:20px;}
	.st5{fill:#EA6D50;}
</style>
<g id="XMLID_566_">
	<g id="XMLID_557_">
		<path id="XMLID_558_" class="st0" d="M0,176.4c0,7.7,6.3,14,14,14h176.2c7.7,0,14-6.3,14-14V14H0V176.4z"/>
		<path id="XMLID_561_" class="st1" d="M190.2,0H14C6.3,0,0,6.3,0,14h204.3C204.3,6.3,198,0,190.2,0z"/>
	</g>
	<text id="XMLID_543_" transform="matrix(1 0 0 1 46.9587 169.3154)" class="st2 st3 st4">Create Task</text>
	<rect id="XMLID_556_" x="18.6" y="29.3" class="st2" width="72" height="9.8"/>
	<rect id="XMLID_563_" x="18.6" y="53.1" class="st2" width="114.1" height="12"/>
	<rect id="XMLID_564_" x="18.6" y="77.5" class="st2" width="94.8" height="12.9"/>
	<rect id="XMLID_565_" x="18.6" y="102.9" class="st2" width="81.8" height="12"/>
	<rect id="XMLID_567_" x="18.6" y="125.2" class="st2" width="57.1" height="12"/>
	<circle id="XMLID_562_" class="st5" cx="21.3" cy="7.1" r="5.2"/>
</g>
</svg>
